<mxfile host="Electron" modified="2024-09-16T18:05:06.335Z" agent="Mozilla/5.0 (Windows NT 10.0; Win64; x64) AppleWebKit/537.36 (KHTML, like Gecko) draw.io/23.0.2 Chrome/120.0.6099.109 Electron/28.1.0 Safari/537.36" etag="DIfbIhhwuZXn75eg9XtZ" version="23.0.2" type="device">
  <diagram name="PÃ¡gina-1" id="9QPlxO53g7qz4wHyTi0z">
    <mxGraphModel dx="1680" dy="982" grid="0" gridSize="10" guides="1" tooltips="1" connect="1" arrows="1" fold="1" page="0" pageScale="1" pageWidth="827" pageHeight="1169" math="0" shadow="0">
      <root>
        <mxCell id="0" />
        <mxCell id="1" parent="0" />
        <mxCell id="z2fx3Ue3ZwoRWBBnQbJZ-42" style="edgeStyle=none;curved=1;rounded=0;orthogonalLoop=1;jettySize=auto;html=1;entryX=0;entryY=0.5;entryDx=0;entryDy=0;fontSize=12;startSize=8;endSize=8;endArrow=none;endFill=0;" edge="1" parent="1" source="z2fx3Ue3ZwoRWBBnQbJZ-1" target="z2fx3Ue3ZwoRWBBnQbJZ-6">
          <mxGeometry relative="1" as="geometry" />
        </mxCell>
        <mxCell id="z2fx3Ue3ZwoRWBBnQbJZ-46" style="edgeStyle=none;curved=1;rounded=0;orthogonalLoop=1;jettySize=auto;html=1;entryX=0.5;entryY=0;entryDx=0;entryDy=0;fontSize=12;startSize=8;endSize=8;endArrow=none;endFill=0;" edge="1" parent="1" source="z2fx3Ue3ZwoRWBBnQbJZ-1" target="z2fx3Ue3ZwoRWBBnQbJZ-5">
          <mxGeometry relative="1" as="geometry" />
        </mxCell>
        <mxCell id="z2fx3Ue3ZwoRWBBnQbJZ-1" value="USUARIO" style="rounded=0;whiteSpace=wrap;html=1;fontSize=16;" vertex="1" parent="1">
          <mxGeometry x="-255.5" y="-9" width="99" height="53" as="geometry" />
        </mxCell>
        <mxCell id="z2fx3Ue3ZwoRWBBnQbJZ-45" style="edgeStyle=none;curved=1;rounded=0;orthogonalLoop=1;jettySize=auto;html=1;entryX=0;entryY=0.5;entryDx=0;entryDy=0;fontSize=12;startSize=8;endSize=8;endArrow=none;endFill=0;" edge="1" parent="1" source="z2fx3Ue3ZwoRWBBnQbJZ-2" target="z2fx3Ue3ZwoRWBBnQbJZ-4">
          <mxGeometry relative="1" as="geometry" />
        </mxCell>
        <mxCell id="z2fx3Ue3ZwoRWBBnQbJZ-2" value="CANCION" style="rounded=0;whiteSpace=wrap;html=1;fontSize=16;" vertex="1" parent="1">
          <mxGeometry x="-255.5" y="264" width="99" height="45" as="geometry" />
        </mxCell>
        <mxCell id="z2fx3Ue3ZwoRWBBnQbJZ-44" style="edgeStyle=none;curved=1;rounded=0;orthogonalLoop=1;jettySize=auto;html=1;entryX=0.5;entryY=0;entryDx=0;entryDy=0;fontSize=12;startSize=8;endSize=8;endArrow=none;endFill=0;" edge="1" parent="1" source="z2fx3Ue3ZwoRWBBnQbJZ-3" target="z2fx3Ue3ZwoRWBBnQbJZ-4">
          <mxGeometry relative="1" as="geometry" />
        </mxCell>
        <mxCell id="z2fx3Ue3ZwoRWBBnQbJZ-3" value="Lista&lt;br&gt;Reproduccion" style="rounded=0;whiteSpace=wrap;html=1;fontSize=16;" vertex="1" parent="1">
          <mxGeometry x="210" y="114" width="103" height="46" as="geometry" />
        </mxCell>
        <mxCell id="z2fx3Ue3ZwoRWBBnQbJZ-4" value="pertenece" style="rhombus;whiteSpace=wrap;html=1;fontSize=16;" vertex="1" parent="1">
          <mxGeometry x="204" y="260" width="115" height="65" as="geometry" />
        </mxCell>
        <mxCell id="z2fx3Ue3ZwoRWBBnQbJZ-49" style="edgeStyle=none;curved=1;rounded=0;orthogonalLoop=1;jettySize=auto;html=1;entryX=0.5;entryY=0;entryDx=0;entryDy=0;fontSize=12;startSize=8;endSize=8;endArrow=none;endFill=0;" edge="1" parent="1" source="z2fx3Ue3ZwoRWBBnQbJZ-5" target="z2fx3Ue3ZwoRWBBnQbJZ-2">
          <mxGeometry relative="1" as="geometry" />
        </mxCell>
        <mxCell id="z2fx3Ue3ZwoRWBBnQbJZ-5" value="sube" style="rhombus;whiteSpace=wrap;html=1;fontSize=16;" vertex="1" parent="1">
          <mxGeometry x="-260" y="126" width="101" height="48" as="geometry" />
        </mxCell>
        <mxCell id="z2fx3Ue3ZwoRWBBnQbJZ-57" style="edgeStyle=none;curved=1;rounded=0;orthogonalLoop=1;jettySize=auto;html=1;entryX=0.5;entryY=0;entryDx=0;entryDy=0;fontSize=12;startSize=8;endSize=8;endArrow=none;endFill=0;" edge="1" parent="1" source="z2fx3Ue3ZwoRWBBnQbJZ-6" target="z2fx3Ue3ZwoRWBBnQbJZ-3">
          <mxGeometry relative="1" as="geometry" />
        </mxCell>
        <mxCell id="z2fx3Ue3ZwoRWBBnQbJZ-6" value="crea" style="rhombus;whiteSpace=wrap;html=1;fontSize=16;" vertex="1" parent="1">
          <mxGeometry x="213" y="-11" width="100" height="45" as="geometry" />
        </mxCell>
        <mxCell id="z2fx3Ue3ZwoRWBBnQbJZ-33" style="edgeStyle=none;curved=1;rounded=0;orthogonalLoop=1;jettySize=auto;html=1;entryX=1;entryY=0.5;entryDx=0;entryDy=0;fontSize=12;startSize=8;endSize=8;endArrow=none;endFill=0;" edge="1" parent="1" source="z2fx3Ue3ZwoRWBBnQbJZ-7" target="z2fx3Ue3ZwoRWBBnQbJZ-1">
          <mxGeometry relative="1" as="geometry" />
        </mxCell>
        <mxCell id="z2fx3Ue3ZwoRWBBnQbJZ-7" value="Password" style="ellipse;whiteSpace=wrap;html=1;fontSize=16;" vertex="1" parent="1">
          <mxGeometry x="-93" y="-65" width="77" height="33" as="geometry" />
        </mxCell>
        <mxCell id="z2fx3Ue3ZwoRWBBnQbJZ-34" style="edgeStyle=none;curved=1;rounded=0;orthogonalLoop=1;jettySize=auto;html=1;entryX=0.75;entryY=0;entryDx=0;entryDy=0;fontSize=12;startSize=8;endSize=8;endArrow=none;endFill=0;" edge="1" parent="1" source="z2fx3Ue3ZwoRWBBnQbJZ-8" target="z2fx3Ue3ZwoRWBBnQbJZ-1">
          <mxGeometry relative="1" as="geometry" />
        </mxCell>
        <mxCell id="z2fx3Ue3ZwoRWBBnQbJZ-8" value="E_mail" style="ellipse;whiteSpace=wrap;html=1;fontSize=16;" vertex="1" parent="1">
          <mxGeometry x="-144" y="-119" width="68" height="33" as="geometry" />
        </mxCell>
        <mxCell id="z2fx3Ue3ZwoRWBBnQbJZ-9" value="Apellidos" style="ellipse;whiteSpace=wrap;html=1;fontSize=16;" vertex="1" parent="1">
          <mxGeometry x="-268" y="-129" width="76" height="33" as="geometry" />
        </mxCell>
        <mxCell id="z2fx3Ue3ZwoRWBBnQbJZ-36" style="edgeStyle=none;curved=1;rounded=0;orthogonalLoop=1;jettySize=auto;html=1;entryX=0;entryY=0.5;entryDx=0;entryDy=0;fontSize=12;startSize=8;endSize=8;endArrow=none;endFill=0;" edge="1" parent="1">
          <mxGeometry relative="1" as="geometry">
            <mxPoint x="-323.7537335854274" y="-75.75023569633345" as="sourcePoint" />
            <mxPoint x="-255.5" y="1" as="targetPoint" />
            <Array as="points">
              <mxPoint x="-273.5" y="-19.5" />
            </Array>
          </mxGeometry>
        </mxCell>
        <mxCell id="z2fx3Ue3ZwoRWBBnQbJZ-10" value="Nombre" style="ellipse;whiteSpace=wrap;html=1;fontSize=16;" vertex="1" parent="1">
          <mxGeometry x="-377" y="-96" width="72" height="33" as="geometry" />
        </mxCell>
        <mxCell id="z2fx3Ue3ZwoRWBBnQbJZ-39" style="edgeStyle=none;curved=1;rounded=0;orthogonalLoop=1;jettySize=auto;html=1;entryX=0;entryY=0.5;entryDx=0;entryDy=0;fontSize=12;startSize=8;endSize=8;endArrow=none;endFill=0;" edge="1" parent="1" source="z2fx3Ue3ZwoRWBBnQbJZ-11" target="z2fx3Ue3ZwoRWBBnQbJZ-1">
          <mxGeometry relative="1" as="geometry" />
        </mxCell>
        <mxCell id="z2fx3Ue3ZwoRWBBnQbJZ-11" value="Nick" style="ellipse;whiteSpace=wrap;html=1;fontSize=16;" vertex="1" parent="1">
          <mxGeometry x="-394" y="1" width="65" height="33" as="geometry" />
        </mxCell>
        <mxCell id="z2fx3Ue3ZwoRWBBnQbJZ-23" style="edgeStyle=none;curved=1;rounded=0;orthogonalLoop=1;jettySize=auto;html=1;fontSize=12;startSize=8;endSize=8;entryX=1;entryY=0.25;entryDx=0;entryDy=0;endArrow=none;endFill=0;" edge="1" parent="1" source="z2fx3Ue3ZwoRWBBnQbJZ-12" target="z2fx3Ue3ZwoRWBBnQbJZ-2">
          <mxGeometry relative="1" as="geometry">
            <mxPoint x="-143" y="271" as="targetPoint" />
          </mxGeometry>
        </mxCell>
        <mxCell id="z2fx3Ue3ZwoRWBBnQbJZ-12" value="Bitrate" style="ellipse;whiteSpace=wrap;html=1;fontSize=16;" vertex="1" parent="1">
          <mxGeometry x="-48" y="211" width="58" height="33" as="geometry" />
        </mxCell>
        <mxCell id="z2fx3Ue3ZwoRWBBnQbJZ-24" style="edgeStyle=none;curved=1;rounded=0;orthogonalLoop=1;jettySize=auto;html=1;entryX=1;entryY=0.75;entryDx=0;entryDy=0;fontSize=12;startSize=8;endSize=8;endArrow=none;endFill=0;" edge="1" parent="1" source="z2fx3Ue3ZwoRWBBnQbJZ-13" target="z2fx3Ue3ZwoRWBBnQbJZ-2">
          <mxGeometry relative="1" as="geometry" />
        </mxCell>
        <mxCell id="z2fx3Ue3ZwoRWBBnQbJZ-13" value="Duracion" style="ellipse;whiteSpace=wrap;html=1;fontSize=16;" vertex="1" parent="1">
          <mxGeometry x="-45" y="390" width="83" height="33" as="geometry" />
        </mxCell>
        <mxCell id="z2fx3Ue3ZwoRWBBnQbJZ-25" style="edgeStyle=none;curved=1;rounded=0;orthogonalLoop=1;jettySize=auto;html=1;entryX=0.75;entryY=1;entryDx=0;entryDy=0;fontSize=12;startSize=8;endSize=8;endArrow=none;endFill=0;" edge="1" parent="1" source="z2fx3Ue3ZwoRWBBnQbJZ-14" target="z2fx3Ue3ZwoRWBBnQbJZ-2">
          <mxGeometry relative="1" as="geometry" />
        </mxCell>
        <mxCell id="z2fx3Ue3ZwoRWBBnQbJZ-14" value="Fecha" style="ellipse;whiteSpace=wrap;html=1;fontSize=16;" vertex="1" parent="1">
          <mxGeometry x="-171" y="415" width="58" height="27" as="geometry" />
        </mxCell>
        <mxCell id="z2fx3Ue3ZwoRWBBnQbJZ-26" style="edgeStyle=none;curved=1;rounded=0;orthogonalLoop=1;jettySize=auto;html=1;entryX=0.25;entryY=1;entryDx=0;entryDy=0;fontSize=12;startSize=8;endSize=8;endArrow=none;endFill=0;" edge="1" parent="1" source="z2fx3Ue3ZwoRWBBnQbJZ-15" target="z2fx3Ue3ZwoRWBBnQbJZ-2">
          <mxGeometry relative="1" as="geometry" />
        </mxCell>
        <mxCell id="z2fx3Ue3ZwoRWBBnQbJZ-15" value="Titulo" style="ellipse;whiteSpace=wrap;html=1;fontSize=16;" vertex="1" parent="1">
          <mxGeometry x="-297" y="412" width="58" height="33" as="geometry" />
        </mxCell>
        <mxCell id="z2fx3Ue3ZwoRWBBnQbJZ-27" style="edgeStyle=none;curved=1;rounded=0;orthogonalLoop=1;jettySize=auto;html=1;entryX=0;entryY=0.75;entryDx=0;entryDy=0;fontSize=12;startSize=8;endSize=8;endArrow=none;endFill=0;" edge="1" parent="1">
          <mxGeometry relative="1" as="geometry">
            <mxPoint x="-345.53113811806384" y="383.9768566268299" as="sourcePoint" />
            <mxPoint x="-255.5" y="309" as="targetPoint" />
            <Array as="points">
              <mxPoint x="-281" y="328.25" />
            </Array>
          </mxGeometry>
        </mxCell>
        <mxCell id="z2fx3Ue3ZwoRWBBnQbJZ-16" value="Autor" style="ellipse;whiteSpace=wrap;html=1;fontSize=16;" vertex="1" parent="1">
          <mxGeometry x="-390.5" y="370" width="58" height="33" as="geometry" />
        </mxCell>
        <mxCell id="z2fx3Ue3ZwoRWBBnQbJZ-28" style="edgeStyle=none;curved=1;rounded=0;orthogonalLoop=1;jettySize=auto;html=1;entryX=0;entryY=0.25;entryDx=0;entryDy=0;fontSize=12;startSize=8;endSize=8;endArrow=none;endFill=0;" edge="1" parent="1">
          <mxGeometry relative="1" as="geometry">
            <mxPoint x="-357.0430575921191" y="314.8921265615454" as="sourcePoint" />
            <mxPoint x="-255.5" y="286" as="targetPoint" />
          </mxGeometry>
        </mxCell>
        <mxCell id="z2fx3Ue3ZwoRWBBnQbJZ-17" value="Genero" style="ellipse;whiteSpace=wrap;html=1;fontSize=16;" vertex="1" parent="1">
          <mxGeometry x="-412" y="295" width="58" height="33" as="geometry" />
        </mxCell>
        <mxCell id="z2fx3Ue3ZwoRWBBnQbJZ-40" style="edgeStyle=none;curved=1;rounded=0;orthogonalLoop=1;jettySize=auto;html=1;entryX=0;entryY=0.25;entryDx=0;entryDy=0;fontSize=12;startSize=8;endSize=8;endArrow=none;endFill=0;" edge="1" parent="1" source="z2fx3Ue3ZwoRWBBnQbJZ-18" target="z2fx3Ue3ZwoRWBBnQbJZ-2">
          <mxGeometry relative="1" as="geometry" />
        </mxCell>
        <mxCell id="z2fx3Ue3ZwoRWBBnQbJZ-18" value="id_cancion" style="ellipse;whiteSpace=wrap;html=1;fontSize=16;" vertex="1" parent="1">
          <mxGeometry x="-448" y="205" width="97" height="33" as="geometry" />
        </mxCell>
        <mxCell id="z2fx3Ue3ZwoRWBBnQbJZ-19" value="Orden" style="ellipse;whiteSpace=wrap;html=1;fontSize=16;" vertex="1" parent="1">
          <mxGeometry x="342" y="370" width="58" height="33" as="geometry" />
        </mxCell>
        <mxCell id="z2fx3Ue3ZwoRWBBnQbJZ-31" style="edgeStyle=none;curved=1;rounded=0;orthogonalLoop=1;jettySize=auto;html=1;entryX=1;entryY=0.75;entryDx=0;entryDy=0;fontSize=12;startSize=8;endSize=8;endArrow=none;endFill=0;" edge="1" parent="1" source="z2fx3Ue3ZwoRWBBnQbJZ-20" target="z2fx3Ue3ZwoRWBBnQbJZ-3">
          <mxGeometry relative="1" as="geometry" />
        </mxCell>
        <mxCell id="z2fx3Ue3ZwoRWBBnQbJZ-20" value="id_lista" style="ellipse;whiteSpace=wrap;html=1;fontSize=16;" vertex="1" parent="1">
          <mxGeometry x="422" y="153" width="80" height="33" as="geometry" />
        </mxCell>
        <mxCell id="z2fx3Ue3ZwoRWBBnQbJZ-32" style="edgeStyle=none;curved=1;rounded=0;orthogonalLoop=1;jettySize=auto;html=1;entryX=1;entryY=0.5;entryDx=0;entryDy=0;fontSize=12;startSize=8;endSize=8;endArrow=none;endFill=0;" edge="1" parent="1" source="z2fx3Ue3ZwoRWBBnQbJZ-21" target="z2fx3Ue3ZwoRWBBnQbJZ-3">
          <mxGeometry relative="1" as="geometry" />
        </mxCell>
        <mxCell id="z2fx3Ue3ZwoRWBBnQbJZ-21" value="Nombre_Lista" style="ellipse;whiteSpace=wrap;html=1;fontSize=16;" vertex="1" parent="1">
          <mxGeometry x="427" y="60" width="118" height="33" as="geometry" />
        </mxCell>
        <mxCell id="z2fx3Ue3ZwoRWBBnQbJZ-30" style="edgeStyle=none;curved=1;rounded=0;orthogonalLoop=1;jettySize=auto;html=1;entryX=0.687;entryY=0.877;entryDx=0;entryDy=0;entryPerimeter=0;fontSize=12;startSize=8;endSize=8;endArrow=none;endFill=0;" edge="1" parent="1" source="z2fx3Ue3ZwoRWBBnQbJZ-19" target="z2fx3Ue3ZwoRWBBnQbJZ-4">
          <mxGeometry relative="1" as="geometry" />
        </mxCell>
        <mxCell id="z2fx3Ue3ZwoRWBBnQbJZ-35" style="edgeStyle=none;curved=1;rounded=0;orthogonalLoop=1;jettySize=auto;html=1;entryX=0.354;entryY=-0.024;entryDx=0;entryDy=0;entryPerimeter=0;fontSize=12;startSize=8;endSize=8;endArrow=none;endFill=0;" edge="1" parent="1" source="z2fx3Ue3ZwoRWBBnQbJZ-9" target="z2fx3Ue3ZwoRWBBnQbJZ-1">
          <mxGeometry relative="1" as="geometry" />
        </mxCell>
        <mxCell id="z2fx3Ue3ZwoRWBBnQbJZ-50" value="(0,N)" style="text;html=1;strokeColor=none;fillColor=none;align=center;verticalAlign=middle;whiteSpace=wrap;rounded=0;" vertex="1" parent="1">
          <mxGeometry x="200" y="87" width="60" height="30" as="geometry" />
        </mxCell>
        <mxCell id="z2fx3Ue3ZwoRWBBnQbJZ-51" value="(0,N)" style="text;html=1;strokeColor=none;fillColor=none;align=center;verticalAlign=middle;whiteSpace=wrap;rounded=0;" vertex="1" parent="1">
          <mxGeometry x="206" y="163" width="60" height="30" as="geometry" />
        </mxCell>
        <mxCell id="z2fx3Ue3ZwoRWBBnQbJZ-52" value="(0,N)" style="text;html=1;strokeColor=none;fillColor=none;align=center;verticalAlign=middle;whiteSpace=wrap;rounded=0;" vertex="1" parent="1">
          <mxGeometry x="-216.5" y="241" width="60" height="30" as="geometry" />
        </mxCell>
        <mxCell id="z2fx3Ue3ZwoRWBBnQbJZ-53" value="(0,N)" style="text;html=1;strokeColor=none;fillColor=none;align=center;verticalAlign=middle;whiteSpace=wrap;rounded=0;" vertex="1" parent="1">
          <mxGeometry x="-161" y="264" width="60" height="30" as="geometry" />
        </mxCell>
        <mxCell id="z2fx3Ue3ZwoRWBBnQbJZ-55" value="(1:1)" style="text;html=1;strokeColor=none;fillColor=none;align=center;verticalAlign=middle;whiteSpace=wrap;rounded=0;" vertex="1" parent="1">
          <mxGeometry x="-211" y="44" width="60" height="30" as="geometry" />
        </mxCell>
        <mxCell id="z2fx3Ue3ZwoRWBBnQbJZ-56" value="(1:1)" style="text;html=1;strokeColor=none;fillColor=none;align=center;verticalAlign=middle;whiteSpace=wrap;rounded=0;" vertex="1" parent="1">
          <mxGeometry x="-159" y="14" width="60" height="30" as="geometry" />
        </mxCell>
      </root>
    </mxGraphModel>
  </diagram>
</mxfile>
